Format : Matroska
Format version : Version 2
File size : 1.68 GiB
Duration : 1h 49mn
Overall bit rate : 2 195 Kbps
Writing application : Lavf51.12.1
Writing library : Lavf51.12.1

Video
ID : 1
Format : AVC
Format/Info : Advanced Video Codec
Format profile : Baseline@L3.0
Format settings, CABAC : No
Format settings, ReFrames : 5 frames
Format settings, GOP : M=1, N=12
Codec ID : V_MPEG4/ISO/AVC
Duration : 1h 49mn
Bit rate : 1 959 Kbps
Width : 720 pixels
Height : 304 pixels
Display aspect ratio : 2.35:1
Frame rate mode : Variable
Frame rate : 23.976 fps
Color space : YUV
Chroma subsampling : 4:2:0
Bit depth : 8 bits
Scan type : Progressive
Bits/(Pixel*Frame) : 0.373
Stream size : 1.50 GiB (89%)
Language : English

Audio
ID : 2
Format : AC-3
Format/Info : Audio Coding 3
Mode extension : CM (complete main)
Codec ID : A_AC3
Duration : 1h 49mn
Bit rate mode : Constant
Bit rate : 192 Kbps
Channel(s) : 2 channels
Channel positions : Front: L R
Sampling rate : 44.1 KHz
Bit depth : 16 bits
Compression mode : Lossy
Stream size : 151 MiB (9%)
Language : English
[*]